<svg xmlns:xlink="http://www.w3.org/1999/xlink" xmlns="http://www.w3.org/2000/svg" class="index-features__tab-icon" width="55" height="53"><defs><symbol id="content" viewBox="0 0 55 53">
    <path d="M24.61 13.914H10.625a.657.657 0 01-.673-.673v-2.067c0-.384.289-.673.673-.673h13.987c.384 0 .673.289.673.673v2.067c-.048.384-.337.673-.673.673zM18.459 19.97h-7.835a.657.657 0 01-.673-.673V17.23c0-.384.289-.672.673-.672h7.835c.384 0 .672.288.672.672v2.067c-.047.385-.336.673-.672.673z" style="fill: var(--primary-color)"></path>
    <path d="M4.76 42.177H1.25a.657.657 0 01-.673-.673V8.291a7.2 7.2 0 017.21-7.21h23.648c.384 0 .673.289.673.673v3.51a.657.657 0 01-.673.672H7.788a2.359 2.359 0 00-2.355 2.355v33.261c0 .337-.337.625-.673.625zM36.867 52.75H10.095a.657.657 0 01-.673-.673v-3.509c0-.384.288-.672.673-.672h26.772a2.359 2.359 0 002.355-2.356V31.505c0-.384.288-.672.673-.672h3.509c.384 0 .672.288.672.672V45.54a7.2 7.2 0 01-7.21 7.21z" style="fill: var(--primary-color)"></path>
    <path d="M24.226 40.254h-9.229a.657.657 0 01-.673-.673V30.4c0-.53.193-1.01.577-1.347L43.499.456c.24-.24.673-.24.914 0l2.5 2.5c.24.24.24.672 0 .912L19.178 31.602v3.845h3.845L50.757 7.714c.24-.24.673-.24.913 0l2.5 2.499c.24.24.24.673 0 .913L25.57 39.725c-.336.336-.817.529-1.345.529z" style="fill: var(--accent-color)"></path>
  </symbol></defs>
          <use xlink:href="#content" fill="#898D9A"></use>
        </svg>