<svg xmlns:xlink="http://www.w3.org/1999/xlink" xmlns="http://www.w3.org/2000/svg" class="index-features__tab-icon" width="60" height="59"><defs><symbol id="market-research" viewBox="0 0 60 59">
    <path d="M11.567 42.725l-1.496-1.496a.694.694 0 010-.948L17.353 33c.25-.25.698-.25.948 0l5.237 5.237 3.641-3.59c.25-.25.698-.25.948 0l1.496 1.545c.25.25.25.699 0 .948l-5.636 5.586a.694.694 0 01-.948 0l-5.237-5.237-5.287 5.287c-.25.2-.698.2-.948-.05zM4.933 49.36H1.292a.682.682 0 01-.698-.699V14.195a7.472 7.472 0 017.481-7.482h7.532c.4 0 .698.3.698.699v3.64c0 .4-.299.7-.698.7H8.026a2.448 2.448 0 00-2.444 2.443v34.466c0 .399-.3.698-.649.698zM37.254 60.382H10.17c-.4 0-.698-.299-.698-.698v-3.641c0-.4.299-.698.698-.698h27.084a2.448 2.448 0 002.444-2.444V38.286c0-.399.3-.698.698-.698h3.641c.4 0 .699.3.699.698v14.615a7.472 7.472 0 01-7.482 7.481z" style="fill: var(--primary-color)"></path>
    <path d="M55.46 40.78L44.437 29.757l3.54-3.541 11.024 11.023c.25.25.25.698 0 .947l-2.594 2.594a.694.694 0 01-.947 0z" style="fill: var(--accent-color)"></path>
    <path d="M35.658 33.298a15.68 15.68 0 01-11.073-4.588c-6.085-6.085-6.085-16.011 0-22.146 6.085-6.085 16.011-6.085 22.146 0 6.085 6.085 6.085 16.01 0 22.146a15.595 15.595 0 01-11.073 4.588zm0-26.285c-2.743 0-5.437 1.047-7.531 3.092-4.14 4.14-4.14 10.874 0 15.063 4.14 4.14 10.873 4.14 15.063 0 4.14-4.14 4.14-10.873 0-15.063-2.095-2.095-4.788-3.092-7.532-3.092z" style="fill: var(--accent-color)"></path>
    <path d="M35.209 10.853v1.945a.7.7 0 00.598.699 4.444 4.444 0 013.741 3.74.7.7 0 00.699.6h1.945c.449 0 .798-.4.748-.799a7.849 7.849 0 00-6.933-6.933c-.449 0-.798.35-.798.748z" style="fill: var(--accent-color)"></path>
  </symbol></defs>
              <use xlink:href="#market-research" fill="#898D9A"></use>
            </svg>