<svg xmlns:xlink="http://www.w3.org/1999/xlink" xmlns="http://www.w3.org/2000/svg" class="index-features__tab-icon" width="61" height="66"><defs><symbol id="social" viewBox="0 0 61 66">
    <path d="M37.64 64.888l-13.443-9.911H7.71a7.35 7.35 0 01-7.36-7.36V19.895a7.35 7.35 0 017.36-7.36h16.487a.67.67 0 01.687.687v3.582a.67.67 0 01-.687.687H7.71a2.408 2.408 0 00-2.404 2.404v27.722a2.408 2.408 0 002.404 2.404h17.468c.441 0 .834.147 1.177.393l7.458 5.495v-5.2a.67.67 0 01.687-.688h8.342v-3.63a.67.67 0 01.687-.688h3.581a.67.67 0 01.687.687v7.9a.67.67 0 01-.687.687h-8.39l-.049 9.371c.049.54-.589.884-1.03.54z" style="fill: var(--primary-color)"></path>
    <path d="M47.356 40.797H31.508a.67.67 0 01-.687-.687v-3.582a.67.67 0 01.687-.687h15.848c4.858 0 6.82-6.477 7.998-12.07.098-.54.196-.981.294-1.276.147-.638.098-1.276-.245-1.668-.246-.294-.589-.49-1.08-.49H43.185c-.441 0-.785-.442-.638-.835l.835-2.846c.834-2.894 1.177-4.072 1.177-7.016V8.462c0-1.226-.441-2.158-1.276-2.796-.686-.491-1.668-.736-2.6-.736v7.163c0 .54-.196 1.03-.589 1.374l-7.016 7.017a.682.682 0 01-.932 0l-2.552-2.552a.682.682 0 010-.932l6.133-6.133V1.544c0-.294.197-.54.442-.638l1.227-.392c3.09-.982 6.378-.54 8.733 1.177 2.16 1.57 3.288 3.975 3.288 6.771V9.64c0 2.453-.246 4.072-.638 5.79h5.495c1.963 0 3.778.883 4.956 2.355 1.276 1.62 1.668 3.729 1.128 5.888-.049.245-.147.638-.245 1.08-.834 4.415-3.238 16.044-12.757 16.044z" style="fill: var(--accent-color)"></path>
    <path d="M24.245 27.353h-12.07a.67.67 0 01-.687-.687v-2.11a.67.67 0 01.687-.687h12.07a.67.67 0 01.687.687v2.11c-.049.392-.343.687-.687.687zM24.245 34.614h-12.07a.67.67 0 01-.687-.686v-2.11a.67.67 0 01.687-.687h12.07a.67.67 0 01.687.687v2.11c-.049.392-.343.687-.687.687zM18.603 41.876h-6.428a.67.67 0 01-.687-.687v-2.11a.67.67 0 01.687-.687h6.428a.67.67 0 01.687.687v2.11c-.05.344-.344.687-.687.687z" style="fill: var(--primary-color)"></path>
  </symbol></defs>
              <use xlink:href="#social" fill="#898D9A"></use>
            </svg>