<svg xmlns:xlink="http://www.w3.org/1999/xlink" xmlns="http://www.w3.org/2000/svg" width="213" height="22"><defs><symbol viewBox="0 0 158 21" id="srf-icon-semrush-logo"><path d="M108.808 8.212c0-2.579-1.586-4.456-4.628-4.456h-9.826v13.37h3.227v-4.563h3.822l3.742 4.562h3.637v-.29l-3.637-4.351c2.288-.463 3.663-2.13 3.663-4.272zm-4.985 1.653h-6.229V6.533h6.229c1.15 0 1.891.608 1.891 1.666 0 1.084-.714 1.666-1.891 1.666zM157.593 3.756h-3.029v5.078h-8.133V3.756h-3.266v13.383h3.266v-5.277h8.133v5.277h3.029V3.756zM85.72 3.756l-3.598 11.253h-.198l-3.61-11.253H72.56v13.383h3.081V6.149h.185l3.597 10.99h4.96l3.61-10.99h.185v10.99h3.174V3.756h-5.634zM50.57 9.23c-1.138-.118-3.267-.317-4.404-.436-1.124-.119-1.772-.45-1.772-1.19 0-.714.687-1.31 3.464-1.31 2.46 0 4.721.53 6.692 1.482V4.787c-1.97-.939-4.153-1.402-6.864-1.402-3.808 0-6.44 1.587-6.44 4.285 0 2.275 1.547 3.518 4.642 3.861 1.124.12 3.028.291 4.364.397 1.454.12 1.878.569 1.878 1.23 0 .913-1.019 1.468-3.597 1.468-2.619 0-5.277-.86-7.168-2.063v3.081c1.521 1.019 4.14 1.878 7.062 1.878 4.152 0 6.824-1.6 6.824-4.47.026-2.168-1.402-3.478-4.682-3.821zM57.393 3.756v13.383h12.47V14.4h-9.389v-2.71h9.23V8.978h-9.23V6.493h9.39V3.756H57.392zM136.487 9.23c-1.138-.118-3.267-.317-4.404-.436-1.124-.119-1.772-.45-1.772-1.19 0-.714.688-1.31 3.465-1.31 2.459 0 4.721.53 6.691 1.482V4.787c-1.97-.939-4.152-1.402-6.863-1.402-3.809 0-6.44 1.587-6.44 4.285 0 2.275 1.547 3.518 4.641 3.861 1.124.12 3.029.291 4.364.397 1.455.12 1.878.569 1.878 1.23 0 .913-1.018 1.468-3.597 1.468-2.618 0-5.276-.86-7.167-2.063v3.081c1.52 1.019 4.139 1.878 7.061 1.878 4.153 0 6.824-1.6 6.824-4.47.027-2.168-1.402-3.478-4.681-3.821zM121.742 3.756v6.85c0 2.592-1.574 4.02-3.941 4.02-2.38 0-3.941-1.402-3.941-4.06v-6.81h-3.213v6.506c0 4.853 3.028 7.26 7.207 7.26 4.007 0 7.115-2.301 7.115-7.101V3.756h-3.227z" fill="#FFFFFF"></path><path d="M30.19 10.368c0 .648-.33.753-1.15.753-.872 0-1.031-.145-1.124-.806-.172-1.68-1.309-3.108-3.213-3.267-.608-.052-.754-.277-.754-1.031 0-.7.106-1.031.648-1.031 3.306.013 5.594 2.67 5.594 5.382zm4.814 0C35.004 5.329 31.593 0 23.711 0H8.054c-.318 0-.516.159-.516.45 0 .158.119.304.225.383.568.45 1.415.952 2.525 1.508 1.085.542 1.931.899 2.777 1.243.357.145.49.304.49.502 0 .278-.199.45-.582.45H.543c-.371 0-.543.238-.543.476 0 .198.066.37.238.542 1.005 1.058 2.618 2.328 4.96 3.796a71.557 71.557 0 0 0 6.611 3.636c.344.159.45.344.45.542-.013.225-.185.41-.582.41h-5.7c-.317 0-.502.172-.502.437 0 .145.119.33.278.476 1.295 1.177 3.372 2.46 6.136 3.636C15.579 20.061 19.32 21 23.526 21c7.974 0 11.478-5.964 11.478-10.632zm-10.407 7.445c-4.073 0-7.485-3.32-7.485-7.458 0-4.074 3.399-7.353 7.485-7.353 4.179 0 7.458 3.266 7.458 7.353-.013 4.139-3.28 7.458-7.458 7.458z" fill="#FF642D"></path></symbol></defs><use xlink:href="#srf-icon-semrush-logo" fill="#999999"></use></svg>