<svg xmlns:xlink="http://www.w3.org/1999/xlink" xmlns="http://www.w3.org/2000/svg" class="index-features__tab-icon" width="57" height="59"><defs><symbol id="seo" viewBox="0 0 57 59">
    <path d="M39.836 48.227c-.383.048-.718-.191-.766-.574-.526-4.306.91-8.613 3.972-11.675a13.798 13.798 0 016.603-3.685 13.804 13.804 0 01-2.057-7.273c0-2.632.717-5.12 2.057-7.321a13.755 13.755 0 01-6.603-3.685 13.799 13.799 0 01-3.685-6.603c-2.153 1.34-4.689 2.057-7.32 2.057a13.97 13.97 0 01-7.322-2.057 13.755 13.755 0 01-3.684 6.603 13.91 13.91 0 01-11.724 3.972c-.383-.048-.622-.43-.526-.766l.622-3.445a.642.642 0 01.718-.526c2.727.335 5.502-.623 7.512-2.632a9.17 9.17 0 002.632-7.608.675.675 0 01.383-.718L24.045.855a.744.744 0 01.766.192c1.722 2.2 4.402 3.54 7.225 3.54 2.823 0 5.503-1.291 7.226-3.54.191-.24.478-.335.765-.192l3.398 1.388c.287.096.43.383.383.67a9.222 9.222 0 002.631 7.608 9.223 9.223 0 007.608 2.632.675.675 0 01.718.383l1.436 3.397a.744.744 0 01-.192.766c-2.2 1.722-3.54 4.402-3.54 7.225 0 2.823 1.291 5.455 3.492 7.226.24.191.336.478.192.765l-1.436 3.398c-.095.287-.382.43-.67.382-2.775-.335-5.598.622-7.56 2.632a9.236 9.236 0 00-2.632 7.465.642.642 0 01-.526.718l-3.493.717z" style="fill: var(--primary-color)"></path>
    <path d="M32.945 14.062c-4.354-.622-8.326 1.149-10.862 4.115-.24.287-.143.766.192.957l1.818 1.053c.287.143.622.096.813-.144 1.675-1.818 4.068-2.87 6.747-2.775 4.163.191 7.704 3.493 8.183 7.656.43 4.02-1.914 7.56-5.36 8.996a.646.646 0 00-.43.718l.335 2.057c.047.383.478.67.861.527 1.723-.622 3.254-1.58 4.498-2.824 2.536-2.536 3.924-6.124 3.445-10.048-.718-5.264-4.976-9.57-10.24-10.288z" style="fill: var(--primary-color)"></path>
    <path d="M26.102 43.538a12.186 12.186 0 01-2.2 3.015c-.24.239-.527.526-.814.717l13.398 10.815c.287.239.67.191.91-.096l2.2-2.727c.24-.288.192-.67-.095-.91L26.103 43.538z" style="fill: var(--accent-color)"></path>
    <path d="M15.001 52.63a15.043 15.043 0 01-10.623-4.403c-5.837-5.837-5.837-15.36 0-21.245 5.838-5.838 15.36-5.838 21.246 0a14.95 14.95 0 014.402 10.622c0 4.02-1.579 7.8-4.402 10.623-2.967 2.92-6.795 4.403-10.623 4.403zm0-25.218c-2.632 0-5.216 1.005-7.225 2.967-3.972 3.972-3.972 10.431 0 14.45 3.971 3.972 10.431 3.972 14.45 0 1.915-1.913 2.967-4.497 2.967-7.225 0-2.727-1.052-5.311-2.966-7.225A10.38 10.38 0 0015 27.412z" style="fill: var(--accent-color)"></path>
    <path d="M14.523 31.145v1.866c0 .335.239.622.574.67a4.264 4.264 0 013.589 3.589.67.67 0 00.67.574h1.865c.431 0 .766-.383.718-.766a7.53 7.53 0 00-6.65-6.651c-.384-.048-.766.287-.766.718z" style="fill: var(--accent-color)"></path>
  </symbol></defs>
              <use xlink:href="#seo" fill="#898D9A"></use>
            </svg>