<svg xmlns:xlink="http://www.w3.org/1999/xlink" xmlns="http://www.w3.org/2000/svg" class="index-features__tab-icon" width="68" height="57"><defs><symbol id="ppc" viewBox="0 0 68 57">
    <path d="M30.102 30.857h-1.935c-4.838 0-9.095-3.628-9.434-8.514-.339-5.322 3.87-9.725 9.095-9.725 4.79 0 8.757 3.726 9.095 8.418.049.387-.29.678-.677.678h-2.08a.678.678 0 01-.677-.58 5.74 5.74 0 00-6.919-5.032 5.593 5.593 0 00-4.354 4.354c-.774 3.677 2.032 6.966 5.564 6.966h2.274c.387 0 .677.29.677.678v2.08c.048.339-.242.677-.629.677zM27.876 44.452c-5.225 0-9.482-4.064-9.82-9.192-.049-.387.29-.677.677-.677h2.08c.339 0 .629.241.677.58.29 3.29 3.048 5.854 6.435 5.854 3.338 0 6.144-2.564 6.434-5.854a.678.678 0 01.677-.58h2.08c.388 0 .678.29.678.677-.435 5.128-4.741 9.192-9.918 9.192z" style="fill: var(--primary-color)"></path>
    <path d="M29.57 14.312h-3.387V9.474c0-.387.29-.677.677-.677h2.08c.387 0 .677.29.677.677v4.838h-.048zM28.892 48.225h-2.08a.661.661 0 01-.677-.677V42.71h3.386v4.838c.049.387-.242.677-.629.677z" style="fill: var(--primary-color)"></path>
    <path d="M44.035 44.5c-4.693 4.741-11.418 7.45-18.771 6.628C14.814 49.967 6.396 41.55 5.235 31.1 3.687 17.41 14.427 5.75 27.828 5.75c9.676 0 17.948 6.047 21.238 14.562a.689.689 0 00.63.435h3.773a.666.666 0 00.628-.87C50.324 8.41 39.197.233 26.28.958 12.492 1.733 1.22 12.861.3 26.65-.764 42.71 12.008 56.11 27.876 56.11c7.547 0 14.417-3.048 19.448-8.03.242-.243.242-.63.049-.92l-2.274-2.71c-.339-.241-.774-.241-1.064.05z" style="fill: var(--primary-color)"></path>
    <path d="M58.5 46.193l-1.548 3.338c-.194.436-.774.533-1.113.146L36.246 26.745c-.387-.435-.049-1.113.484-1.113h30.188c.484 0 .822.484.58.92l-1.547 3.338c-.194.387-.581.677-1.016.677H46.017l12.289 14.368c.29.387.338.823.193 1.258z" style="fill: var(--accent-color)"></path>
  </symbol></defs>
          <use xlink:href="#ppc" fill="#898D9A"></use>
        </svg>