<svg xmlns:xlink="http://www.w3.org/1999/xlink" xmlns="http://www.w3.org/2000/svg" width="987" height="669" fill="none"><path d="M391.396 662.232c66.619 2.875 134.196-19.705 187.134-68.279l11.988 13.065c2.423 2.641 6.687 2.825 9.199.263 53.18-51.1 82.344-118.053 86.748-186.609.287-3.592-2.519-6.65-6.249-6.811l-17.855-.77c2.853-66.621-19.748-134.206-68.338-187.162l13.06-11.984c2.64-2.422 2.823-6.686.261-9.199-51.116-53.198-118.078-82.385-186.633-86.812-3.592-.288-6.649 2.516-6.808 6.247l-.765 17.854c-66.619-2.875-134.196 19.705-187.134 68.279l-11.988-13.065c-2.423-2.641-6.687-2.825-9.199-.263-53.18 51.1-82.344 118.053-86.748 186.609-.287 3.592 2.519 6.65 6.249 6.811l17.854.77c-2.852 66.621 19.749 134.206 68.34 187.162l-13.2 12.112c-2.64 2.422-2.823 6.686-.261 9.199 51.116 53.198 118.077 82.385 186.633 86.812 3.592.288 6.649-2.516 6.808-6.247l.904-17.982z" fill="#B880FF"/></svg>