<svg xmlns:xlink="http://www.w3.org/1999/xlink" xmlns="http://www.w3.org/2000/svg" width="987" height="669" fill="none"><path fill-rule="evenodd" clip-rule="evenodd" d="M301.711 649.562l-4.411 18.244c-.979 4.044 1.753 8.11 5.884 8.623 154.987 19.362 303.123-80.355 340.709-235.785l18.249 4.413c4.045.978 8.11-1.754 8.625-5.89 19.355-154.984-80.353-303.126-235.787-340.713l4.411-18.243c.978-4.045-1.754-8.11-5.884-8.624-154.988-19.356-303.123 80.356-340.71 235.792l-18.25-4.414c-4.045-.978-8.109 1.748-8.624 5.884-19.36 154.983 80.354 303.127 235.788 340.713z" fill="#45E0A8"/></svg>