<svg width="119" height="43" fill="none" xmlns="http://www.w3.org/2000/svg"><path d="M46.184 12.276l-7.51 11.12c-.781 1.178-2.151 1.889-3.585 1.889-2.336 0-4.269-1.919-4.269-4.234 0-2.35 1.933-4.265 4.285-4.265a6.88 6.88 0 01.764-.063c1.621 0 3.273.68 4.395 1.825l2.243-3.4c-1.745-1.79-4.332-2.937-6.92-2.937-4.83 0-9.255 3.986-9.255 8.807 0 4.792 3.958 8.715 8.79 8.715a9.008 9.008 0 006.295-2.627h5.173l.03 2.627h4.49V12.276h-4.926zM44.13 23.274l2.46-3.427.03 3.427h-2.49zm15.582 6.459h-4.488V16.352h-3.49v-4.047l11.467-.03v4.077h-3.49v13.381zm18.451-17.457h-4.489l-.03 6.519h-5.3l-.033-6.52h-4.485v17.458h4.518v-6.892h5.33v6.892h4.488V12.275zm35.964-.001V20.4l-6.17-8.124-4.084.029-.031 6.367c-1.028-3.708-4.55-6.396-8.477-6.396-4.83 0-8.789 3.922-8.789 8.743 0 1.548.467 3.12 1.214 4.481h-4.446V12.275H78.77v17.458h10.455V27.29c1.651 1.516 3.895 2.443 6.139 2.443 3.926 0 7.387-2.627 8.477-6.337l.031 6.337h4.52v-8.496l6.137 8.496h4.082l.006-17.458h-4.49zM95.365 25.47c-2.462 0-4.488-1.977-4.488-4.451 0-2.44 2.026-4.448 4.488-4.448 2.494 0 4.52 2.008 4.52 4.448 0 2.474-2.026 4.45-4.52 4.45zm-74.46.03v-2.444h4.816l-.008-4.262h-4.808v-2.223h5.309l-.01-4.295-10.221.028V18.3c-1.06-3.275-4.115-5.687-7.606-5.996l-7.76-.028v17.457H8.41c3.459-.308 6.514-2.718 7.574-5.963v5.963h10.23l-.008-4.233h-5.3zm-9.878-1.824c-.28 1.176-1.402 2.008-2.618 2.04H5.542v-9.364H8.41c1.216 0 2.338.869 2.618 2.072a8.08 8.08 0 01.437 2.594 8.45 8.45 0 01-.437 2.658z" fill="#fff"/></svg>