<svg width="90" height="43" fill="none" xmlns="http://www.w3.org/2000/svg"><path fill-rule="evenodd" clip-rule="evenodd" d="M51.453 14.583c1.126-.613 2.25-.92 3.682-.92 3.479 0 6.138 3.069 6.138 7.263 0 5.32-3.273 8.695-8.695 8.695-1.944 0-3.888-.307-5.73-.716.103-2.149.207-15.243 0-17.698-.202-1.228-.51-1.739-1.43-1.943l-.716-.102v-.614l6.854-1.227c-.103 1.023-.103 3.989-.103 7.262zm.102 13.81c.306.102.818.102 1.227.102 2.149 0 3.684-3.17 3.684-7.263 0-3.273-1.227-5.932-3.48-5.932-.511 0-.92.102-1.534.307-.102 5.319 0 11.355.103 12.787zM.918 7.73h18.004l.103 6.035-1.023.307c-1.023-3.069-2.455-4.807-5.217-4.807h-3.58A178.365 178.365 0 009 17.959l2.454-.102c1.535 0 2.25-1.227 2.557-2.966h.921v7.26h-.92c-.308-1.738-1.023-2.966-2.558-2.966L9 19.083c0 2.659.102 4.808.205 6.138.205 1.944.716 2.864 2.046 2.966l1.227.205v.819H.918v-.819l1.023-.205c1.33-.101 1.84-1.022 2.045-2.966.205-3.17.308-9.82 0-13.503-.204-1.943-.716-2.761-2.045-2.966L.918 8.65v-.92zm31.508 13.81c0-4.604-2.558-8.082-7.673-8.082s-7.979 3.683-7.979 8.081c0 4.604 2.557 8.083 7.672 8.083s7.98-3.684 7.98-8.083zm-10.844 0c0-3.99.613-7.059 2.864-7.059 2.15 0 3.171 3.171 3.171 7.058 0 3.99-.615 7.058-2.966 7.058-2.046 0-3.07-3.17-3.07-7.058zm48.897-8.082c-5.218 0-7.877 3.99-7.877 8.184 0 4.706 3.273 7.98 7.877 7.98 2.864 0 5.114-1.433 6.137-2.865l-.408-.511c-1.024.716-1.842 1.125-3.48 1.125-3.682 0-5.524-2.763-5.42-6.548h9.513c0-4.193-2.047-7.365-6.342-7.365zm1.636 6.138l-4.808.103c.102-2.354 1.024-5.218 2.762-5.218 1.739 0 2.046 3.07 2.046 5.115zm12.176-6.138c1.84 0 3.477.307 4.705.819l.104 3.99-.715.204c-.922-2.763-2.15-3.888-3.99-3.888-1.227 0-2.15.92-2.15 2.25s1.022 2.047 3.887 3.172c2.66 1.023 3.786 2.25 3.786 4.399 0 3.17-2.558 5.217-6.548 5.217-1.944 0-4.194-.41-5.422-.92l-.102-4.502.716-.205c1.125 3.07 2.558 4.194 4.501 4.194 1.637 0 2.558-1.125 2.558-2.352 0-1.228-.717-1.944-3.273-2.864-2.458-.819-4.196-1.944-4.196-4.604s2.354-4.91 6.139-4.91zM39.279 17.04c1.637-3.683 4.706-4.193 6.444-3.172l-1.636 4.195c-2.046-1.33-4.297-.716-4.808 0-.103 2.455-.103 6.342.102 8.287.103 1.226.41 1.84 1.432 1.942l1.228.103v.818h-9.513v-.818l.716-.103c.921-.102 1.33-.716 1.432-1.942.102-2.148.205-6.445 0-8.9-.102-1.33-.51-1.842-1.432-1.945l-.716-.102v-.613l6.853-1.33-.102 3.58z" fill="#fff"/></svg>