<svg width="54" height="42" fill="none" xmlns="http://www.w3.org/2000/svg"><mask id="a" maskUnits="userSpaceOnUse" x="0" y="9" width="54" height="22"><path fill-rule="evenodd" clip-rule="evenodd" d="M.918 9.393v4.399H3.88v12.507H.997v4.345h10.334V26.3H8.37V13.792h2.883V9.393H.918zm29.359.053v4.346h2.962v12.507h-2.882v4.345h7.366V18.561l4.383 12.083h.09l4.303-12.083v12.083h7.419V26.3h-2.962V13.792h2.883V9.446H45.57l-3.428 9.698-3.472-9.698h-8.394zm-17.594 0v4.346h2.962v12.507h-2.962v4.345l11.187.006c1.992 0 3.492-1.452 3.492-1.452l1.182-1.373c.334-.328.525-1.447.525-1.447l.122-1.372c0-.684-.281-1.452-.281-1.452l-.61-1.373c-.307-.71-1.261-1.452-1.261-1.452v-1.367s.954-.742 1.261-1.452l.61-1.373s.28-.768.28-1.452l-.116-1.373s-.19-1.118-.525-1.446l-1.182-1.373s-1.5-1.452-3.492-1.452l-11.192.005zm7.419 4.346h4.345v4.027h-4.345v-4.027zm4.345 12.507h-4.345V22.27h4.345v4.03z" fill="#fff"/></mask><g mask="url(#a)"><path fill-rule="evenodd" clip-rule="evenodd" d="M-.537 9.459h56.044v4.276H-.537V9.459zm1.46 1.46v1.356h53.124v-1.356H.923zm-1.46 4.172h53.13v4.277H.923v1.356h51.67V25H-.537v-9.909zm1.46 2.817V16.55h50.21v1.357H.923zm0 4.276v1.356h50.21v-1.356H.923zm53.124 5.633H.193v-1.46h55.314v4.276H.193v-1.46h53.854v-1.356z" fill="#fff"/></g></svg>