<svg width="51" height="43" fill="none" xmlns="http://www.w3.org/2000/svg"><path d="M6.433 29.885c-1.49-.059-2.708-.467-3.661-1.224a7.321 7.321 0 01-.761-.761 4.753 4.753 0 01-.825-1.484c-.539-1.615-.261-3.735.794-6.06.904-1.992 2.299-3.968 4.732-6.703a146.37 146.37 0 011.433-1.58c.002 0-.056.1-.13.223-.632 1.06-1.173 2.308-1.468 3.389-.474 1.734-.417 3.222.167 4.376a4.274 4.274 0 001.87 1.863c1.36.667 3.35.722 5.78.162.168-.039 8.46-2.24 18.428-4.892s18.125-4.82 18.126-4.818c.003.002-23.158 9.913-35.181 15.054-1.904.814-2.414 1.02-3.309 1.334-2.288.804-4.338 1.187-5.995 1.121z" fill="#fff"/></svg>