<svg width="47" height="43" fill="none" xmlns="http://www.w3.org/2000/svg"><path d="M18.292 31.201c-1.569-.084-2.739-.73-3.424-1.888-.459-.777-.598-1.8-.388-2.844.232-1.157 1.023-2.2 2.236-2.95.697-.432 1.294-.7 2.508-1.127a8.25 8.25 0 00.587-.22c.024-.019.027-.087.015-.31-.035-.632.07-1.617.25-2.328.3-1.196.878-2.161 1.645-2.746a4.856 4.856 0 011.991-.873 4.634 4.634 0 011.435 0c1.6.323 2.499 1.557 2.145 2.946-.074.293-.31.774-.509 1.04-.51.68-1.278 1.286-2.363 1.861a39.89 39.89 0 01-.991.488c-.409.196-.756.369-.772.385-.023.023-.017.09.027.313.203 1.032.545 1.905 1.13 2.88.231.39.552.88.589.902.053.032.269-.317.41-.662.174-.428.274-.993.224-1.274a1.07 1.07 0 00-.285-.55.737.737 0 01-.118-.134c0-.01.544-.015 1.21-.011l1.21.006-.006.153c-.01.21-.088.658-.17.976-.231.896-.668 1.662-1.422 2.498-.088.099-.161.196-.161.216 0 .02.125.157.277.305.953.923 2.642 1.989 4.016 2.534.134.053.243.107.242.12 0 .015-.794.026-2.319.03l-2.318.006-.132-.075c-.27-.151-.866-.633-1.44-1.162-.12-.113-.235-.204-.254-.204-.02 0-.154.078-.3.174-.744.49-1.634.932-2.386 1.183-.856.285-1.563.387-2.39.342zm1.952-2.009a6.317 6.317 0 001.165-.344c.395-.157.883-.398.9-.443.008-.018-.083-.17-.2-.336-.54-.768-1.115-1.85-1.503-2.819a16.397 16.397 0 01-.46-1.366c-.016-.069-.045-.132-.065-.14-.054-.02-.497.216-.88.47-1.36.902-2.012 2.002-1.867 3.152.064.511.226.884.52 1.199.545.581 1.396.805 2.39.627zm2.308-7.997c.504-.295 1.302-1.01 1.749-1.566.571-.712.875-1.376.876-1.915 0-.308-.044-.446-.187-.588-.141-.142-.301-.2-.546-.2-.725 0-1.509.86-1.85 2.03-.172.59-.214.908-.216 1.63 0 .55.009.673.05.673a.711.711 0 00.124-.064zm11.99 9.992c-1.195-.12-1.982-.299-2.87-.65-1.209-.48-1.963-1.072-2.6-2.044a7.935 7.935 0 01-.621-1.24c-.553-1.504-.674-3.398-.345-5.373.333-2 1.093-3.927 2.141-5.433.68-.977 1.691-2.006 2.736-2.783 1.724-1.282 3.708-2.07 5.913-2.348a12.302 12.302 0 011.833-.105c1.195 0 2.105.092 3.307.33.767.153 1.988.483 2.012.543.012.031-.762 2.511-.794 2.545-.01.01-.129-.07-.264-.177-1.087-.867-2.213-1.394-3.352-1.57a5.916 5.916 0 00-1.404 0c-1.597.246-3.078 1.267-4.392 3.026a15.02 15.02 0 00-1.264 2.056 16.76 16.76 0 00-1.18 2.987c-1.099 3.665-1.155 6.226-.166 7.612.407.571 1.002.935 1.757 1.074.433.08 1.485.032 1.59-.073.017-.017.53-1.624 1.142-3.572 1.003-3.2 1.112-3.56 1.123-3.741a1.237 1.237 0 00-.14-.671c-.099-.19-.362-.45-.579-.57a.75.75 0 01-.17-.112c0-.01 1.684-.017 3.743-.017s3.743.008 3.743.017c0 .01-.091.06-.203.11-.582.267-1.005.667-1.256 1.19-.054.112-.526 1.576-1.233 3.83l-1.146 3.647-.33.159c-1.349.647-2.998 1.113-4.642 1.311-.303.037-1.837.068-2.09.042zm-34.46-.266c-.007-.012.043-.054.111-.094.407-.234.864-.72 1.057-1.125.056-.117 5.192-16.472 5.305-16.894.02-.074.037-.23.037-.348a1.082 1.082 0 00-.37-.86.685.685 0 01-.13-.145c0-.032 8.967-.03 9.378.003.89.07 1.782.307 2.464.654 1.164.592 1.86 1.49 2.075 2.674.06.33.071 1.063.022 1.418-.2 1.447-.855 2.98-1.747 4.091-1.446 1.798-3.81 2.948-6.712 3.264-.92.1-2.079.126-2.9.063a4.412 4.412 0 00-.442-.022c-.029.03-1.88 5.97-1.901 6.102-.066.41.145.869.508 1.11.072.047.124.096.117.108-.019.03-6.853.03-6.871 0zm10.18-8.823a4.478 4.478 0 001.842-.773c.279-.196.851-.768 1.088-1.086.59-.796 1.026-1.735 1.376-2.972.224-.788.319-1.39.319-2.008 0-.477-.043-.762-.164-1.082a1.79 1.79 0 00-1.001-1.035c-.396-.16-.734-.202-1.546-.193l-.613.007-1.424 4.535c-.783 2.494-1.42 4.547-1.415 4.562.006.015.104.04.219.055.114.016.224.032.244.037.089.022.883-.013 1.074-.047z" fill="#fff"/></svg>