<svg width="110" height="43" fill="none" xmlns="http://www.w3.org/2000/svg"><path d="M74.975 14.229l-2.762.007V28.41H84.88c1.385-.588 2.127-1.604 2.414-2.791H74.968l.007-11.39zm20.672 2.832h10.567c1.468-.29 2.562-1.586 2.868-2.84H92.777c.305 1.254 1.414 2.55 2.87 2.84zm-34.222-.04c1.468-.426 2.705-1.546 3.006-2.788H48.926v8.374h12.69v2.94l-9.953.01c-1.561.433-2.88 1.48-3.542 2.864l.805-.015h15.42v-8.582H51.662v-2.802h9.762zm31.779 11.385h2.748v-5.705h10.004v5.705h2.746V19.85l-15.498-.015v8.572zM27.569 17.052h10.565c1.47-.292 2.562-1.588 2.868-2.84H24.7c.305 1.252 1.413 2.548 2.87 2.84zM.082 14.243c.317 1.24 1.391 2.504 2.863 2.824h4.447l.226.09v11.22h2.778v-11.22l.251-.09H15.1c1.486-.384 2.537-1.583 2.85-2.824v-.027H.082v.027zm27.487 14.165h10.565c1.47-.294 2.562-1.586 2.868-2.841H24.7c.305 1.255 1.413 2.547 2.87 2.841zm0-5.754h10.565c1.47-.29 2.562-1.586 2.868-2.84H24.7c.305 1.254 1.413 2.55 2.87 2.84z" fill="#fff"/></svg>