<svg width="125" height="43" fill="none" xmlns="http://www.w3.org/2000/svg"><path d="M.082 10.499s3.087 12.65 3.58 14.704c.575 2.396 1.611 3.278 4.599 2.684l1.927-7.844c.489-1.948.817-3.337 1.13-5.319h.056c.22 2.002.535 3.377.937 5.326 0 0 .785 3.56 1.187 5.43.402 1.87 1.524 3.049 4.45 2.407L22.541 10.5h-3.708l-1.568 7.517c-.422 2.189-.805 3.898-1.1 5.9h-.052c-.268-1.982-.609-3.624-1.037-5.756l-1.633-7.66H9.579l-1.747 7.467c-.494 2.27-.957 4.102-1.252 6.036h-.053a212.176 212.176 0 00-1.137-6.321S4.352 12.341 3.988 10.5H.082zm35.353 0v17.387h3.53V10.498h-3.53zm49.728 0v12.827c0 1.768.333 3.007 1.045 3.764.622.662 1.647 1.09 2.875 1.09 1.044 0 2.07-.197 2.555-.378l-.046-2.759a5.37 5.37 0 01-1.341.16c-1.203 0-1.606-.77-1.606-2.358v-4.908h3.075V14.61h-3.075V10.5h-3.482zm-57.619 4.03c-2.194 0-3.936.617-4.885 1.165l.695 2.38c.869-.548 2.252-1.002 3.562-1.002 2.17-.005 2.524 1.227 2.524 2.017v.187c-4.726-.007-7.712 1.628-7.712 4.962 0 2.035 1.52 3.943 4.163 3.943 1.626 0 2.987-.65 3.802-1.689h.08s.54 2.258 3.515 1.395c-.157-.94-.207-1.942-.207-3.148v-4.645c0-2.96-1.265-5.564-5.537-5.564zm21.121 0c-2.209 0-3.202 1.12-3.804 2.07h-.052v-1.775h-3.37v13.063h3.55v-7.66c0-.36.04-.74.166-1.07.294-.771 1.012-1.674 2.157-1.674 1.433 0 2.103 1.211 2.103 2.959v7.445h3.546v-7.754c0-.342.047-.755.148-1.058.291-.878 1.065-1.592 2.13-1.592 1.452 0 2.149 1.19 2.149 3.247v7.157h3.548v-7.694c0-4.057-2.06-5.663-4.386-5.663-1.03 0-1.843.258-2.578.71-.618.378-1.17.917-1.654 1.626h-.052c-.563-1.408-1.882-2.336-3.601-2.336zm19.492 0c-2.194 0-3.935.617-4.885 1.165l.696 2.38c.868-.548 2.252-1.002 3.561-1.002 2.168-.005 2.523 1.227 2.523 2.017v.187c-4.725-.007-7.71 1.628-7.71 4.962 0 2.035 1.52 3.943 4.164 3.943 1.625 0 2.986-.65 3.8-1.689h.08s.54 2.258 3.515 1.395c-.157-.94-.207-1.942-.207-3.148v-4.645c0-2.96-1.264-5.564-5.537-5.564zm14.74 0c-1.358 0-2.905.878-3.554 2.759h-.099v-2.464h-3.195v13.063h3.642v-6.69c0-.36.022-.675.08-.963.269-1.401 1.34-2.297 2.879-2.297.422 0 .724.046 1.05.093v-3.42a3.508 3.508 0 00-.802-.08zM29.555 21.59v1.63c0 .241-.021.49-.088.707-.273.905-1.21 1.67-2.383 1.67-.977 0-1.753-.555-1.753-1.728 0-1.794 1.975-2.29 4.224-2.279zm40.613 0v1.63c0 .241-.022.49-.088.707-.273.905-1.21 1.67-2.382 1.67-.978 0-1.754-.555-1.754-1.728 0-1.794 1.975-2.29 4.224-2.279zm40.643-17.38c-1.14 0-2.046.637-2.046 1.412l.692 7.84c.076.471.655.836 1.354.836.701-.001 1.277-.365 1.355-.837l.696-7.839c0-.774-.909-1.411-2.05-1.411h-.001zM99.529 10.5c-.591.014-1.264.462-1.691 1.203-.572.988-.47 2.09.198 2.478l7.134 3.322c.446.166 1.051-.15 1.402-.755 0 0-.001 0 0 0 .352-.607.324-1.29-.046-1.593l-6.443-4.52a1.043 1.043 0 00-.553-.135zm22.563 0a1.038 1.038 0 00-.552.136l-6.444 4.519c-.369.303-.396.985-.046 1.593.352.604.956.92 1.401.755l7.137-3.322c.672-.387.768-1.49.2-2.478-.429-.741-1.102-1.19-1.694-1.203h-.002zm-16.655 10.34a.723.723 0 00-.266.044l-7.134 3.318c-.669.39-.77 1.493-.198 2.481.57.986 1.575 1.454 2.244 1.068l6.444-4.516c.37-.307.398-.99.046-1.596l.002.002c-.284-.495-.738-.796-1.138-.801zm10.751 0c-.4.005-.853.306-1.139.8h.003c-.35.606-.323 1.289.045 1.595l6.444 4.516c.668.386 1.674-.082 2.247-1.068.568-.988.472-2.092-.2-2.48l-7.135-3.319a.721.721 0 00-.265-.044zm-5.378 3.248c-.699.001-1.276.364-1.352.835l-.692 7.838c0 .777.906 1.412 2.046 1.412 1.142 0 2.049-.635 2.049-1.412l-.694-7.838c-.078-.471-.654-.834-1.355-.834h-.002z" fill="#fff"/></svg>